<svg width="200" height="200" viewBox="0 0 200 200" fill="none" xmlns="http://www.w3.org/2000/svg">
  <!-- Abstract geometric composition with hexagons and triangles -->

  <!-- Main hexagon -->
  <path d="M100 20 L160 55 L160 125 L100 160 L40 125 L40 55 Z"
        fill="#0d4d2d"
        stroke="#1a6d46"
        stroke-width="2"/>

  <!-- Inner triangular shapes -->
  <path d="M100 50 L130 90 L100 90 Z"
        fill="#1a6d46"/>

  <path d="M100 90 L130 90 L130 120 Z"
        fill="#256d4a"/>

  <path d="M70 90 L100 90 L100 120 Z"
        fill="#1a6d46"/>

  <path d="M100 120 L130 120 L100 150 Z"
        fill="#0d4d2d"/>

  <path d="M70 120 L100 120 L100 150 Z"
        fill="#134d35"/>

  <!-- Accent geometric elements -->
  <circle cx="100" cy="90" r="8" fill="#2e8b57"/>

  <!-- Corner accent shapes -->
  <path d="M40 55 L55 65 L45 75 Z" fill="#1a6d46" opacity="0.6"/>
  <path d="M160 55 L155 75 L145 65 Z" fill="#1a6d46" opacity="0.6"/>

  <!-- DevConsul text -->
  <text x="100" y="180"
        font-family="Arial, sans-serif"
        font-size="18"
        font-weight="700"
        fill="#0d4d2d"
        text-anchor="middle">DevConsul</text>

  <!-- Tagline -->
  <text x="100" y="195"
        font-family="'Courier New', monospace"
        font-size="9"
        font-weight="500"
        fill="#1a6d46"
        opacity="0.9"
        text-anchor="middle">&gt; git merge --audience main<tspan fill="#2e8b57">█</tspan></text>
</svg>
